# Blender v2.73 (sub 0) OBJ File: ''
# www.blender.org
v 1.000000 0.000000 -1.000000
v 1.000000 0.000000 -0.000000
v 0.000000 0.000000 -0.000000
v 0.000000 0.000000 -1.000000
v 1.000000 1.000000 -1.000000
v 0.999999 1.000000 0.000000
v 0.000000 1.000000 -0.000000
v 0.000000 1.000000 -1.000000
vt 0.999900 0.999900
vt 0.000100 0.999900
vt 0.000100 0.000100
vt 0.999900 0.000100
vn 1.000000 0.000000 0.000000
vn 0.000000 -1.000000 0.000000
vn 0.000000 1.000000 0.000000
vn -0.000000 0.000000 1.000000
vn -1.000000 -0.000000 -0.000000
vn 0.000000 0.000000 -1.000000
s off
f 5/1/1 6/2/1 2/3/1
f 1/4/1 5/1/1 2/3/1
f 1/1/2 2/2/2 3/3/2
f 8/2/3 7/3/3 6/4/3
f 6/1/4 7/2/4 3/3/4
f 7/3/5 8/4/5 4/1/5
f 1/1/6 4/2/6 8/3/6
f 4/4/2 1/1/2 3/3/2
f 5/1/3 8/2/3 6/4/3
f 2/4/4 6/1/4 3/3/4
f 3/2/5 7/3/5 4/1/5
f 5/4/6 1/1/6 8/3/6
