# Blender v2.73 (sub 0) OBJ File: 'cube.blend'
# www.blender.org
mtllib cube.mtl
o cube
v 1.000000 1.000000 -1.000000
v 0.999999 1.000000 0.000000
v 1.000000 0.000000 0.000000
v 1.000000 0.000000 -1.000000
v 0.000000 0.000000 0.000000
v 0.000000 1.000000 -1.000000
v 0.000000 1.000000 0.000000
v 0.000000 0.000000 -1.000000
vt 0.999900 0.999900
vt 0.000100 0.999900
vt 0.000100 0.000100
vt 0.999900 0.000100
vn 1.000000 0.000000 0.000000
vn 0.000000 -1.000000 -0.000000
vn 0.000000 1.000000 0.000000
vn 0.000000 -0.000000 1.000000
vn -1.000000 0.000000 0.000000
vn 0.000000 0.000000 -1.000000
usemtl brick_mat
s off
f 1/1/1 2/2/1 3/3/1
f 4/4/1 1/1/1 3/3/1
f 4/1/2 3/2/2 5/3/2
f 6/2/3 7/3/3 2/4/3
f 2/1/4 7/2/4 5/3/4
f 7/3/5 6/4/5 8/1/5
f 4/1/6 8/2/6 6/3/6
f 8/4/2 4/1/2 5/3/2
f 1/1/3 6/2/3 2/4/3
f 3/4/4 2/1/4 5/3/4
f 5/2/5 7/3/5 8/1/5
f 1/4/6 4/1/6 6/3/6
